<svg id="Layer_1" data-name="Layer 1" xmlns="http://www.w3.org/2000/svg" viewBox="0 0 500 400" style=""><defs><style>.cls-1,.cls-2,.cls-3{fill:none;stroke:#2e3192;stroke-miterlimit:10;}.cls-1{stroke-width:12.93px;}.cls-2{stroke-width:7.31px;}.cls-3{stroke-width:7.76px;}</style></defs><title>buff</title><path class="cls-1 bzjYJAyP_0" d="M51.35,139.58H85.46s22.07-27.08,63.2-34.11c0,0,29.74-68.11,101.14-75.23s100.49,10,136.6,60.19c0,0,65.2-7,94.29,60.19,0,0,25.08,71.22-68.21,136.43,0,0-27.21,21.2-40.13,13-7.94-5-11-14-11-14s-25.08,32.1-44.14,37.12c0,0-26.08,34.11-78.24,26.08,0,0-6-57.18,20.06-78.24H213.86s-24.08,28.09-75.23,13-44.14-7-44.14-7-2,44.14-9,62.19-40.13,32.1-40.13,32.1-29.09-24.08-29.09-62.19S39.31,262,39.31,262s-6-38.12,28.09-50.16l2-48.15S48.34,157.64,51.35,139.58Z"></path><path class="cls-2 bzjYJAyP_1" d="M165.31,188.14L178.76,107.4L205.96,70.91L300.51,70.91L315.63,92.65L310.91,129.52L278.76,129.52L284.43,101.16L211.63,101.16L200.29,180.58L224.87,182.47L228.65,152.22L218.25,153.16L222.03,129.52L266.3,129.52L257.01,180.58L272.14,180.58L276.87,154.11L306.18,154.11L303.34,192.14L277.81,213.67L251.34,213.67L248.51,233.53L310.91,233.53L327.92,126.69L370.47,127.63L366.69,152.22L354.4,152.22L344,242.03L319.42,265.67L281.87,276.7L300.77,253.07L222.55,251.14L213.52,238.25L215.41,208.94L187.05,208.94L165.31,188.14Z"></path><path class="cls-3 bzjYJAyP_2" d="M433.87,147s-43.13,20-32.1,50.64S424.84,169.09,433.87,147Z"></path><style data-made-with="vivus-instant">.bzjYJAyP_0{stroke-dasharray:1529 1531;stroke-dashoffset:1530;animation:bzjYJAyP_draw_0 5800ms ease-in-out 0ms infinite,bzjYJAyP_fade 5800ms linear 0ms infinite;}.bzjYJAyP_1{stroke-dasharray:1501 1503;stroke-dashoffset:1502;animation:bzjYJAyP_draw_1 5800ms ease-in-out 0ms infinite,bzjYJAyP_fade 5800ms linear 0ms infinite;}.bzjYJAyP_2{stroke-dasharray:143 145;stroke-dashoffset:144;animation:bzjYJAyP_draw_2 5800ms ease-in-out 0ms infinite,bzjYJAyP_fade 5800ms linear 0ms infinite;}@keyframes bzjYJAyP_draw{100%{stroke-dashoffset:0;}}@keyframes bzjYJAyP_fade{0%{stroke-opacity:1;}93.10344827586206%{stroke-opacity:1;}100%{stroke-opacity:0;}}@keyframes bzjYJAyP_draw_0{6.896551724137931%{stroke-dashoffset: 1530}41.37931034482759%{ stroke-dashoffset: 0;}100%{ stroke-dashoffset: 0;}}@keyframes bzjYJAyP_draw_1{15.517241379310345%{stroke-dashoffset: 1502}50%{ stroke-dashoffset: 0;}100%{ stroke-dashoffset: 0;}}@keyframes bzjYJAyP_draw_2{24.137931034482758%{stroke-dashoffset: 144}58.620689655172406%{ stroke-dashoffset: 0;}100%{ stroke-dashoffset: 0;}}</style></svg>