<svg id="Layer_1" data-name="Layer 1" xmlns="http://www.w3.org/2000/svg" viewBox="0 0 500 400" style=""><defs><style>.cls-1,.cls-2{fill:none;stroke:#2e3191;stroke-miterlimit:10;}.cls-1{stroke-width:13px;}.cls-2{stroke-width:7px;}</style></defs><title>club</title><path class="cls-1 ZfbHPnvW_0" d="M258.18,150.75s55.31,5.93,90.87-29.63,48.07-65.19,48.07-65.19,17.12,48.07-4.61,114.58c0,0,81,20.41,90.21,39.51,0,0-78.36,84.94-201.49,96.8,0,0,38.85-19.75,31.61-63.87s-83.63-10.54-83.63-10.54L101.46,302.2a39.58,39.58,0,0,1-17.78-32.27s101.41-55.31,110.62-71.12l13.17,4,2-14.49,15.15,5.27,1.32-18.44,13.17,6.26,4-18.77,14.49,7.24Z"></path><path class="cls-1 ZfbHPnvW_1" d="M83.69,269.94s-61.9,21.73-65.19,27.66-1.32,38.19,23.71,46.09c0,0,4,7.24,59.26-41.48"></path><path class="cls-2 ZfbHPnvW_2" d="M159.42,253.15s152.31-97.78,264.51-45.76l13.16-10.66s-37.61-32-142.91-7.52S159.42,253.15,159.42,253.15Z"></path><path class="cls-2 ZfbHPnvW_3" d="M447.12,201.76s-87.75,66.79-120.35,68.18c0,0,.63,14.56-7.52,17.69,0,0,53.9-12.54,57-30.71,0,0,10-5,6.89,6.27,0,0,33.93-8.14,34.47-33.22,0,0,18.18-1.25,11.91,7.52C429.57,237.48,456,219,447.12,201.76Z"></path><path class="cls-2 ZfbHPnvW_4" d="M313,210.53s18.8,32.11,16.3,45.76,58.92-25.7,83.36-42.62l-17.55-7.52-.63,10.44-14.42-14.83v19.43l-20.68-16.3,3.45,25.54-22.25-23,1.88,37.29Z"></path><path class="cls-2 ZfbHPnvW_5" d="M274.75,165.4L283.2,181.37L288.54,173.39L301.7,180.01L307.34,165.4L319.25,173.39L328.03,159.76L338.06,170.57L346.21,155.37L360,168.37L360,135.94L352.47,135.94L352.47,145.34L342.44,142.84L338.69,154.75L326.15,150.99L319.25,158.66L298.26,158.66L298.26,169.16L283.2,162.27L274.75,165.4Z"></path><path class="cls-2 ZfbHPnvW_6" d="M390.08,97.08s-4.39,64.56-9.4,69.57H370s4.39-35.73-3.13-42.62C366.89,124,388.83,111.5,390.08,97.08Z"></path><style data-made-with="vivus-instant">.ZfbHPnvW_0{stroke-dasharray:1245 1247;stroke-dashoffset:1246;animation:ZfbHPnvW_draw_0 5800ms ease-in-out 0ms infinite,ZfbHPnvW_fade 5800ms linear 0ms infinite;}.ZfbHPnvW_1{stroke-dasharray:202 204;stroke-dashoffset:203;animation:ZfbHPnvW_draw_1 5800ms ease-in-out 0ms infinite,ZfbHPnvW_fade 5800ms linear 0ms infinite;}.ZfbHPnvW_2{stroke-dasharray:594 596;stroke-dashoffset:595;animation:ZfbHPnvW_draw_2 5800ms ease-in-out 0ms infinite,ZfbHPnvW_fade 5800ms linear 0ms infinite;}.ZfbHPnvW_3{stroke-dasharray:354 356;stroke-dashoffset:355;animation:ZfbHPnvW_draw_3 5800ms ease-in-out 0ms infinite,ZfbHPnvW_fade 5800ms linear 0ms infinite;}.ZfbHPnvW_4{stroke-dasharray:384 386;stroke-dashoffset:385;animation:ZfbHPnvW_draw_4 5800ms ease-in-out 0ms infinite,ZfbHPnvW_fade 5800ms linear 0ms infinite;}.ZfbHPnvW_5{stroke-dasharray:293 295;stroke-dashoffset:294;animation:ZfbHPnvW_draw_5 5800ms ease-in-out 0ms infinite,ZfbHPnvW_fade 5800ms linear 0ms infinite;}.ZfbHPnvW_6{stroke-dasharray:162 164;stroke-dashoffset:163;animation:ZfbHPnvW_draw_6 5800ms ease-in-out 0ms infinite,ZfbHPnvW_fade 5800ms linear 0ms infinite;}@keyframes ZfbHPnvW_draw{100%{stroke-dashoffset:0;}}@keyframes ZfbHPnvW_fade{0%{stroke-opacity:1;}93.10344827586206%{stroke-opacity:1;}100%{stroke-opacity:0;}}@keyframes ZfbHPnvW_draw_0{6.896551724137931%{stroke-dashoffset: 1246}41.37931034482759%{ stroke-dashoffset: 0;}100%{ stroke-dashoffset: 0;}}@keyframes ZfbHPnvW_draw_1{9.770114942528735%{stroke-dashoffset: 203}44.25287356321839%{ stroke-dashoffset: 0;}100%{ stroke-dashoffset: 0;}}@keyframes ZfbHPnvW_draw_2{12.643678160919539%{stroke-dashoffset: 595}47.126436781609186%{ stroke-dashoffset: 0;}100%{ stroke-dashoffset: 0;}}@keyframes ZfbHPnvW_draw_3{15.517241379310345%{stroke-dashoffset: 355}50%{ stroke-dashoffset: 0;}100%{ stroke-dashoffset: 0;}}@keyframes ZfbHPnvW_draw_4{18.390804597701145%{stroke-dashoffset: 385}52.87356321839081%{ stroke-dashoffset: 0;}100%{ stroke-dashoffset: 0;}}@keyframes ZfbHPnvW_draw_5{21.26436781609195%{stroke-dashoffset: 294}55.7471264367816%{ stroke-dashoffset: 0;}100%{ stroke-dashoffset: 0;}}@keyframes ZfbHPnvW_draw_6{24.137931034482758%{stroke-dashoffset: 163}58.620689655172406%{ stroke-dashoffset: 0;}100%{ stroke-dashoffset: 0;}}</style></svg>