<svg id="Layer_1" data-name="Layer 1" xmlns="http://www.w3.org/2000/svg" viewBox="0 0 500 400" style=""><defs><style>.cls-1,.cls-2,.cls-3{fill:none;stroke:#2e3191;stroke-miterlimit:10;}.cls-1{stroke-width:13px;}.cls-2{stroke-width:7px;}.cls-3{stroke-width:15px;}</style></defs><title>storyWebsite</title><path class="cls-1 ijkNsbAJ_0" d="M177.36,71.29S156.69,44,141.18,55.79s-7.38,20.67-7.38,20.67-45,10.34-52.41,32.48c0,0-5.17,22.15,9.6,53.89,0,0,26.58,42.82,45,49.46,0,0,2.21,20.67,8.12,20.67s29.53-29.53,27.31-39.13S150,111.89,158.16,104.51"></path><path class="cls-1 ijkNsbAJ_1" d="M164,58.31s77.6-69,158.07-18c0,0,19.19-31,31.74-10.34l12.55,20.67s48.72,28.79,50.94,36.17,5.91,41.34-7.38,59.8-30.27,38.94-30.27,38.94,0,16.43-12.55,12-25.84-40.6-25.84-40.6-11.07-42.82.74-76.78"></path><path class="cls-1 ijkNsbAJ_2" d="M164,212.53s56.19,41.1,72.43,43.32"></path><path class="cls-1 ijkNsbAJ_3" d="M358.4,190.16s-34.13,51.66-53.33,55.35"></path><path class="cls-1 ijkNsbAJ_4" d="M331.73,224.87L331.73,258.8L354.53,292.76"></path><path class="cls-1 ijkNsbAJ_5" d="M331.73,320.81s2.13-36.17,42-28.05,39.86,43.56,39.86,43.56,1.48,44.29-45,42.08S331.73,320.81,331.73,320.81Z"></path><path class="cls-1 ijkNsbAJ_6" d="M128.93,300.14s35.13-26.58,53.59-7.38,30.27,62.75,5.91,72.35-65.7,14.76-70.87-14.76S128.93,300.14,128.93,300.14Z"></path><path class="cls-1 ijkNsbAJ_7" d="M195.38,234.19s.34,15,4.82,24.63l-17.67,33.94"></path><path class="cls-1 ijkNsbAJ_8" d="M200.2,352.93L331.73,352.93"></path><path class="cls-2 ijkNsbAJ_9" d="M241.53,156.71s-4.47-7.26,4.47-8.94c0,0,31.21-8.32,31.44,2.22s-16.82,15.47-16.82,15.47S244.86,164.33,241.53,156.71Z"></path><path class="cls-2 ijkNsbAJ_10" d="M200.2,171s17.3-13.65,16-2.66,2,13.65,2,13.65,25,14,37.94,0c0,0,8.32-10.32,20,1s32-16,32-16,2.33-2-5-15.31c0,0-7.88-5.79,16.64,3.41"></path><path class="cls-2 ijkNsbAJ_11" d="M268.75,205.9c-7.35-16.84-18.62-9-24.48-3.11a3.63,3.63,0,0,0,0,5.26c2.55,2.25,4.88,9.09,1.69,28.8,0,0,.87,18.19,31.44,13s12.94-48,7.62-54.1-23.59,1-23.59,1"></path><path class="cls-2 ijkNsbAJ_12" d="M291.73,182.58L286.79,198.28"></path><path class="cls-2 ijkNsbAJ_13" d="M231.16,188.15L244.31,208.05"></path><path class="cls-3 ijkNsbAJ_14" d="M291.86,114.53A4.61,4.61 0,1,1 301.08000000000004,114.53A4.61,4.61 0,1,1 291.86,114.53"></path><path class="cls-3 ijkNsbAJ_15" d="M204.29999999999998,120.86A4.61,4.61 0,1,1 213.52,120.86A4.61,4.61 0,1,1 204.29999999999998,120.86"></path><style data-made-with="vivus-instant">.ijkNsbAJ_0{stroke-dasharray:419 421;stroke-dashoffset:420;animation:ijkNsbAJ_draw_0 5800ms ease-in-out 0ms infinite,ijkNsbAJ_fade 5800ms linear 0ms infinite;}.ijkNsbAJ_1{stroke-dasharray:559 561;stroke-dashoffset:560;animation:ijkNsbAJ_draw_1 5800ms ease-in-out 0ms infinite,ijkNsbAJ_fade 5800ms linear 0ms infinite;}.ijkNsbAJ_2{stroke-dasharray:85 87;stroke-dashoffset:86;animation:ijkNsbAJ_draw_2 5800ms ease-in-out 0ms infinite,ijkNsbAJ_fade 5800ms linear 0ms infinite;}.ijkNsbAJ_3{stroke-dasharray:78 80;stroke-dashoffset:79;animation:ijkNsbAJ_draw_3 5800ms ease-in-out 0ms infinite,ijkNsbAJ_fade 5800ms linear 0ms infinite;}.ijkNsbAJ_4{stroke-dasharray:75 77;stroke-dashoffset:76;animation:ijkNsbAJ_draw_4 5800ms ease-in-out 0ms infinite,ijkNsbAJ_fade 5800ms linear 0ms infinite;}.ijkNsbAJ_5{stroke-dasharray:272 274;stroke-dashoffset:273;animation:ijkNsbAJ_draw_5 5800ms ease-in-out 0ms infinite,ijkNsbAJ_fade 5800ms linear 0ms infinite;}.ijkNsbAJ_6{stroke-dasharray:278 280;stroke-dashoffset:279;animation:ijkNsbAJ_draw_6 5800ms ease-in-out 0ms infinite,ijkNsbAJ_fade 5800ms linear 0ms infinite;}.ijkNsbAJ_7{stroke-dasharray:64 66;stroke-dashoffset:65;animation:ijkNsbAJ_draw_7 5800ms ease-in-out 0ms infinite,ijkNsbAJ_fade 5800ms linear 0ms infinite;}.ijkNsbAJ_8{stroke-dasharray:132 134;stroke-dashoffset:133;animation:ijkNsbAJ_draw_8 5800ms ease-in-out 0ms infinite,ijkNsbAJ_fade 5800ms linear 0ms infinite;}.ijkNsbAJ_9{stroke-dasharray:93 95;stroke-dashoffset:94;animation:ijkNsbAJ_draw_9 5800ms ease-in-out 0ms infinite,ijkNsbAJ_fade 5800ms linear 0ms infinite;}.ijkNsbAJ_10{stroke-dasharray:176 178;stroke-dashoffset:177;animation:ijkNsbAJ_draw_10 5800ms ease-in-out 0ms infinite,ijkNsbAJ_fade 5800ms linear 0ms infinite;}.ijkNsbAJ_11{stroke-dasharray:195 197;stroke-dashoffset:196;animation:ijkNsbAJ_draw_11 5800ms ease-in-out 0ms infinite,ijkNsbAJ_fade 5800ms linear 0ms infinite;}.ijkNsbAJ_12{stroke-dasharray:17 19;stroke-dashoffset:18;animation:ijkNsbAJ_draw_12 5800ms ease-in-out 0ms infinite,ijkNsbAJ_fade 5800ms linear 0ms infinite;}.ijkNsbAJ_13{stroke-dasharray:24 26;stroke-dashoffset:25;animation:ijkNsbAJ_draw_13 5800ms ease-in-out 0ms infinite,ijkNsbAJ_fade 5800ms linear 0ms infinite;}.ijkNsbAJ_14{stroke-dasharray:29 31;stroke-dashoffset:30;animation:ijkNsbAJ_draw_14 5800ms ease-in-out 0ms infinite,ijkNsbAJ_fade 5800ms linear 0ms infinite;}.ijkNsbAJ_15{stroke-dasharray:29 31;stroke-dashoffset:30;animation:ijkNsbAJ_draw_15 5800ms ease-in-out 0ms infinite,ijkNsbAJ_fade 5800ms linear 0ms infinite;}@keyframes ijkNsbAJ_draw{100%{stroke-dashoffset:0;}}@keyframes ijkNsbAJ_fade{0%{stroke-opacity:1;}93.10344827586206%{stroke-opacity:1;}100%{stroke-opacity:0;}}@keyframes ijkNsbAJ_draw_0{6.896551724137931%{stroke-dashoffset: 420}41.37931034482759%{ stroke-dashoffset: 0;}100%{ stroke-dashoffset: 0;}}@keyframes ijkNsbAJ_draw_1{8.045977011494253%{stroke-dashoffset: 560}42.5287356321839%{ stroke-dashoffset: 0;}100%{ stroke-dashoffset: 0;}}@keyframes ijkNsbAJ_draw_2{9.195402298850576%{stroke-dashoffset: 86}43.67816091954023%{ stroke-dashoffset: 0;}100%{ stroke-dashoffset: 0;}}@keyframes ijkNsbAJ_draw_3{10.344827586206897%{stroke-dashoffset: 79}44.827586206896555%{ stroke-dashoffset: 0;}100%{ stroke-dashoffset: 0;}}@keyframes ijkNsbAJ_draw_4{11.49425287356322%{stroke-dashoffset: 76}45.97701149425288%{ stroke-dashoffset: 0;}100%{ stroke-dashoffset: 0;}}@keyframes ijkNsbAJ_draw_5{12.643678160919542%{stroke-dashoffset: 273}47.1264367816092%{ stroke-dashoffset: 0;}100%{ stroke-dashoffset: 0;}}@keyframes ijkNsbAJ_draw_6{13.793103448275861%{stroke-dashoffset: 279}48.275862068965516%{ stroke-dashoffset: 0;}100%{ stroke-dashoffset: 0;}}@keyframes ijkNsbAJ_draw_7{14.942528735632186%{stroke-dashoffset: 65}49.425287356321846%{ stroke-dashoffset: 0;}100%{ stroke-dashoffset: 0;}}@keyframes ijkNsbAJ_draw_8{16.091954022988507%{stroke-dashoffset: 133}50.57471264367817%{ stroke-dashoffset: 0;}100%{ stroke-dashoffset: 0;}}@keyframes ijkNsbAJ_draw_9{17.24137931034483%{stroke-dashoffset: 94}51.724137931034484%{ stroke-dashoffset: 0;}100%{ stroke-dashoffset: 0;}}@keyframes ijkNsbAJ_draw_10{18.390804597701152%{stroke-dashoffset: 177}52.87356321839081%{ stroke-dashoffset: 0;}100%{ stroke-dashoffset: 0;}}@keyframes ijkNsbAJ_draw_11{19.540229885057474%{stroke-dashoffset: 196}54.02298850574713%{ stroke-dashoffset: 0;}100%{ stroke-dashoffset: 0;}}@keyframes ijkNsbAJ_draw_12{20.689655172413794%{stroke-dashoffset: 18}55.172413793103445%{ stroke-dashoffset: 0;}100%{ stroke-dashoffset: 0;}}@keyframes ijkNsbAJ_draw_13{21.839080459770116%{stroke-dashoffset: 25}56.32183908045978%{ stroke-dashoffset: 0;}100%{ stroke-dashoffset: 0;}}@keyframes ijkNsbAJ_draw_14{22.98850574712644%{stroke-dashoffset: 30}57.4712643678161%{ stroke-dashoffset: 0;}100%{ stroke-dashoffset: 0;}}@keyframes ijkNsbAJ_draw_15{24.137931034482758%{stroke-dashoffset: 30}58.620689655172406%{ stroke-dashoffset: 0;}100%{ stroke-dashoffset: 0;}}</style></svg>