<svg id="Layer_1" data-name="Layer 1" xmlns="http://www.w3.org/2000/svg" viewBox="0 0 500 291.29" style=""><defs><style>.cls-1,.cls-2{fill:none;stroke:#2e3190;stroke-miterlimit:10;}.cls-1{stroke-width:13px;}.cls-2{stroke-width:7px;}</style></defs><title>newRing</title><path class="cls-1 qhxUNbAG_0" d="M319.82,125.18a5.76,5.76,0,0,1,.33-.9c1.9-4.12,17.12-35.33,43.67-42.57,28.44-7.76,58.49,8,58.49,8s46.41,32.43,22.82,91.78-76,48.57-76,48.57-52.37-15.12-53.6-73.77C314,144.55,316.82,136.63,319.82,125.18Z"></path><path class="cls-2 qhxUNbAG_1" d="M355.38,170.28l12.6,18.9L387.39,198l20.09-6,13.25-10,7.65-12.37,1.88-27-9.48-14.91L404.55,117l-20.39-2.77-11.34,5.32L358.91,139Z"></path><path class="cls-2 qhxUNbAG_2" d="M357.11,140.44,340.2,154.29l15.18,16-5.53,21,14.76-1.7a3.4,3.4,0,0,1,3.76,3l2,16.44,15.26-9.87a2.6,2.6,0,0,1,3.29.38L400,211.05l6.3-16.21a3.29,3.29,0,0,1,4.1-1.94l11.3,3.71-.87-12.45a2.62,2.62,0,0,1,2-2.73l11-2.64-5.47-9.21L438.14,156l-7.88-13.44,3-18.12-8,2.05A3.42,3.42,0,0,1,421,123l.41-9.25-14.06,2.7a4.4,4.4,0,0,1-4.43-1.78L393,100.62l-7,10.89a3.42,3.42,0,0,1-4.6,1.09L368.4,105l3.21,10.58a3.27,3.27,0,0,1-2.95,4.22l-14.59.83,4.24,16.07A3.62,3.62,0,0,1,357.11,140.44Z"></path><path class="cls-2 qhxUNbAG_3" d="M329.54,204.17l20.31-12.9"></path><path class="cls-2 qhxUNbAG_4" d="M361.22,227.42,370.33,209"></path><path class="cls-2 qhxUNbAG_5" d="M429.9,207.32l-8.15-10.71"></path><path class="cls-2 qhxUNbAG_6" d="M445.12,181.45l-11.27-2.66"></path><path class="cls-2 qhxUNbAG_7" d="M438.15,156l13,2.33"></path><path class="cls-2 qhxUNbAG_8" d="M421.4,113.79l9.24-16.63"></path><path class="cls-2 qhxUNbAG_9" d="M394.38,80.33,393,100.62"></path><path class="cls-2 qhxUNbAG_10" d="M353,86.2,368.4,105"></path><path class="cls-2 qhxUNbAG_11" d="M331.41,105.87l22.67,14.78"></path><path class="cls-2 qhxUNbAG_12" d="M316.79,151.31l23.41,3"></path><path class="cls-2 qhxUNbAG_13" d="M403.43,226.23,400,211.05"></path><path class="cls-2 qhxUNbAG_14" d="M422.31,89.71s3.52-23.28-49.68-26.32c-30.89-1.77-56.49,34.41-56.49,34.41s-7,6.38-15.67,22.87-.87,50-.87,50a141,141,0,0,0,17.16,44.27c9.7,16.26,20.55,32.84,70,30.87,25.9-1,67.9-15,70-78.47"></path><path class="cls-2 qhxUNbAG_15" d="M310.55,104.42s-51.48,42.65-68.93,40.64-71-34.23-104.81-33.44c0,0-16,12.61-37.3,14.84,0,0-11.14-21.94-26.31-22.38,0,0,202.33-15.08,242.93-6.24"></path><path class="cls-2 qhxUNbAG_16" d="M352.93,68.13S78.4,65.8,30.56,98.15s18.62,72.21,18.62,72.21,38.35-5.1,45.68-13.27c0,0,20,27.62,34.27,29.31,0,0,63-7.61,84.78-17.06,0,0,19.42-12.17,35.29,2.45s57.6,22.91,57.6,22.91"></path><path class="cls-2 qhxUNbAG_17" d="M266.33,155l30.45-14.81,2.55,26.3c.13.74.63,3.45-.11,3.57a1.36,1.36,0,0,1-.41,0C292.33,169.22,271.2,164.72,266.33,155Z"></path><path class="cls-2 qhxUNbAG_18" d="M206.79,152.6s-42.43-28.62-80.6-10c0,0,2.08,18.42,41.8,17.24S206.79,152.6,206.79,152.6Z"></path><path class="cls-2 qhxUNbAG_19" d="M30.63,130.4s23.16-9.59,33.34-5.86c11.12,4.08,30.63,13.56,19.51,18.83S38.79,148.23,30.63,130.4Z"></path><path class="cls-2 qhxUNbAG_20" d="M412,73.23s61.52,12.57,70.44,27.57c16.67,27.88-19.26,67.4-32.16,72.71"></path><path class="cls-2 qhxUNbAG_21" d="M422.33,89.67s68.18,15.43,33.61,47.74a2.26,2.26,0,0,0,.87,3.82c7.42,2.25,19.72,9.66-6.62,32.23"></path><style data-made-with="vivus-instant">.qhxUNbAG_0{stroke-dasharray:453 455;stroke-dashoffset:454;animation:qhxUNbAG_draw_0 5800ms ease-in-out 0ms infinite,qhxUNbAG_fade 5800ms linear 0ms infinite;}.qhxUNbAG_1{stroke-dasharray:249 251;stroke-dashoffset:250;animation:qhxUNbAG_draw_1 5800ms ease-in-out 0ms infinite,qhxUNbAG_fade 5800ms linear 0ms infinite;}.qhxUNbAG_2{stroke-dasharray:410 412;stroke-dashoffset:411;animation:qhxUNbAG_draw_2 5800ms ease-in-out 0ms infinite,qhxUNbAG_fade 5800ms linear 0ms infinite;}.qhxUNbAG_3{stroke-dasharray:25 27;stroke-dashoffset:26;animation:qhxUNbAG_draw_3 5800ms ease-in-out 0ms infinite,qhxUNbAG_fade 5800ms linear 0ms infinite;}.qhxUNbAG_4{stroke-dasharray:21 23;stroke-dashoffset:22;animation:qhxUNbAG_draw_4 5800ms ease-in-out 0ms infinite,qhxUNbAG_fade 5800ms linear 0ms infinite;}.qhxUNbAG_5{stroke-dasharray:14 16;stroke-dashoffset:15;animation:qhxUNbAG_draw_5 5800ms ease-in-out 0ms infinite,qhxUNbAG_fade 5800ms linear 0ms infinite;}.qhxUNbAG_6{stroke-dasharray:12 14;stroke-dashoffset:13;animation:qhxUNbAG_draw_6 5800ms ease-in-out 0ms infinite,qhxUNbAG_fade 5800ms linear 0ms infinite;}.qhxUNbAG_7{stroke-dasharray:14 16;stroke-dashoffset:15;animation:qhxUNbAG_draw_7 5800ms ease-in-out 0ms infinite,qhxUNbAG_fade 5800ms linear 0ms infinite;}.qhxUNbAG_8{stroke-dasharray:20 22;stroke-dashoffset:21;animation:qhxUNbAG_draw_8 5800ms ease-in-out 0ms infinite,qhxUNbAG_fade 5800ms linear 0ms infinite;}.qhxUNbAG_9{stroke-dasharray:21 23;stroke-dashoffset:22;animation:qhxUNbAG_draw_9 5800ms ease-in-out 0ms infinite,qhxUNbAG_fade 5800ms linear 0ms infinite;}.qhxUNbAG_10{stroke-dasharray:25 27;stroke-dashoffset:26;animation:qhxUNbAG_draw_10 5800ms ease-in-out 0ms infinite,qhxUNbAG_fade 5800ms linear 0ms infinite;}.qhxUNbAG_11{stroke-dasharray:28 30;stroke-dashoffset:29;animation:qhxUNbAG_draw_11 5800ms ease-in-out 0ms infinite,qhxUNbAG_fade 5800ms linear 0ms infinite;}.qhxUNbAG_12{stroke-dasharray:24 26;stroke-dashoffset:25;animation:qhxUNbAG_draw_12 5800ms ease-in-out 0ms infinite,qhxUNbAG_fade 5800ms linear 0ms infinite;}.qhxUNbAG_13{stroke-dasharray:16 18;stroke-dashoffset:17;animation:qhxUNbAG_draw_13 5800ms ease-in-out 0ms infinite,qhxUNbAG_fade 5800ms linear 0ms infinite;}.qhxUNbAG_14{stroke-dasharray:456 458;stroke-dashoffset:457;animation:qhxUNbAG_draw_14 5800ms ease-in-out 0ms infinite,qhxUNbAG_fade 5800ms linear 0ms infinite;}.qhxUNbAG_15{stroke-dasharray:512 514;stroke-dashoffset:513;animation:qhxUNbAG_draw_15 5800ms ease-in-out 0ms infinite,qhxUNbAG_fade 5800ms linear 0ms infinite;}.qhxUNbAG_16{stroke-dasharray:701 703;stroke-dashoffset:702;animation:qhxUNbAG_draw_16 5800ms ease-in-out 0ms infinite,qhxUNbAG_fade 5800ms linear 0ms infinite;}.qhxUNbAG_17{stroke-dasharray:102 104;stroke-dashoffset:103;animation:qhxUNbAG_draw_17 5800ms ease-in-out 0ms infinite,qhxUNbAG_fade 5800ms linear 0ms infinite;}.qhxUNbAG_18{stroke-dasharray:174 176;stroke-dashoffset:175;animation:qhxUNbAG_draw_18 5800ms ease-in-out 0ms infinite,qhxUNbAG_fade 5800ms linear 0ms infinite;}.qhxUNbAG_19{stroke-dasharray:127 129;stroke-dashoffset:128;animation:qhxUNbAG_draw_19 5800ms ease-in-out 0ms infinite,qhxUNbAG_fade 5800ms linear 0ms infinite;}.qhxUNbAG_20{stroke-dasharray:164 166;stroke-dashoffset:165;animation:qhxUNbAG_draw_20 5800ms ease-in-out 0ms infinite,qhxUNbAG_fade 5800ms linear 0ms infinite;}.qhxUNbAG_21{stroke-dasharray:125 127;stroke-dashoffset:126;animation:qhxUNbAG_draw_21 5800ms ease-in-out 0ms infinite,qhxUNbAG_fade 5800ms linear 0ms infinite;}@keyframes qhxUNbAG_draw{100%{stroke-dashoffset:0;}}@keyframes qhxUNbAG_fade{0%{stroke-opacity:1;}93.10344827586206%{stroke-opacity:1;}100%{stroke-opacity:0;}}@keyframes qhxUNbAG_draw_0{6.896551724137931%{stroke-dashoffset: 454}41.37931034482759%{ stroke-dashoffset: 0;}100%{ stroke-dashoffset: 0;}}@keyframes qhxUNbAG_draw_1{7.717569786535303%{stroke-dashoffset: 250}42.200328407224966%{ stroke-dashoffset: 0;}100%{ stroke-dashoffset: 0;}}@keyframes qhxUNbAG_draw_2{8.538587848932677%{stroke-dashoffset: 411}43.02134646962234%{ stroke-dashoffset: 0;}100%{ stroke-dashoffset: 0;}}@keyframes qhxUNbAG_draw_3{9.35960591133005%{stroke-dashoffset: 26}43.84236453201971%{ stroke-dashoffset: 0;}100%{ stroke-dashoffset: 0;}}@keyframes qhxUNbAG_draw_4{10.180623973727423%{stroke-dashoffset: 22}44.66338259441707%{ stroke-dashoffset: 0;}100%{ stroke-dashoffset: 0;}}@keyframes qhxUNbAG_draw_5{11.001642036124794%{stroke-dashoffset: 15}45.48440065681445%{ stroke-dashoffset: 0;}100%{ stroke-dashoffset: 0;}}@keyframes qhxUNbAG_draw_6{11.822660098522169%{stroke-dashoffset: 13}46.30541871921182%{ stroke-dashoffset: 0;}100%{ stroke-dashoffset: 0;}}@keyframes qhxUNbAG_draw_7{12.643678160919542%{stroke-dashoffset: 15}47.1264367816092%{ stroke-dashoffset: 0;}100%{ stroke-dashoffset: 0;}}@keyframes qhxUNbAG_draw_8{13.464696223316913%{stroke-dashoffset: 21}47.947454844006565%{ stroke-dashoffset: 0;}100%{ stroke-dashoffset: 0;}}@keyframes qhxUNbAG_draw_9{14.285714285714285%{stroke-dashoffset: 22}48.768472906403936%{ stroke-dashoffset: 0;}100%{ stroke-dashoffset: 0;}}@keyframes qhxUNbAG_draw_10{15.106732348111656%{stroke-dashoffset: 26}49.589490968801314%{ stroke-dashoffset: 0;}100%{ stroke-dashoffset: 0;}}@keyframes qhxUNbAG_draw_11{15.92775041050903%{stroke-dashoffset: 29}50.41050903119869%{ stroke-dashoffset: 0;}100%{ stroke-dashoffset: 0;}}@keyframes qhxUNbAG_draw_12{16.748768472906402%{stroke-dashoffset: 25}51.231527093596064%{ stroke-dashoffset: 0;}100%{ stroke-dashoffset: 0;}}@keyframes qhxUNbAG_draw_13{17.569786535303777%{stroke-dashoffset: 17}52.052545155993435%{ stroke-dashoffset: 0;}100%{ stroke-dashoffset: 0;}}@keyframes qhxUNbAG_draw_14{18.390804597701152%{stroke-dashoffset: 457}52.87356321839081%{ stroke-dashoffset: 0;}100%{ stroke-dashoffset: 0;}}@keyframes qhxUNbAG_draw_15{19.21182266009852%{stroke-dashoffset: 513}53.69458128078818%{ stroke-dashoffset: 0;}100%{ stroke-dashoffset: 0;}}@keyframes qhxUNbAG_draw_16{20.032840722495894%{stroke-dashoffset: 702}54.51559934318555%{ stroke-dashoffset: 0;}100%{ stroke-dashoffset: 0;}}@keyframes qhxUNbAG_draw_17{20.85385878489327%{stroke-dashoffset: 103}55.33661740558292%{ stroke-dashoffset: 0;}100%{ stroke-dashoffset: 0;}}@keyframes qhxUNbAG_draw_18{21.67487684729064%{stroke-dashoffset: 175}56.15763546798029%{ stroke-dashoffset: 0;}100%{ stroke-dashoffset: 0;}}@keyframes qhxUNbAG_draw_19{22.495894909688012%{stroke-dashoffset: 128}56.97865353037766%{ stroke-dashoffset: 0;}100%{ stroke-dashoffset: 0;}}@keyframes qhxUNbAG_draw_20{23.316912972085387%{stroke-dashoffset: 165}57.799671592775034%{ stroke-dashoffset: 0;}100%{ stroke-dashoffset: 0;}}@keyframes qhxUNbAG_draw_21{24.137931034482758%{stroke-dashoffset: 126}58.620689655172406%{ stroke-dashoffset: 0;}100%{ stroke-dashoffset: 0;}}</style></svg>