<svg id="Layer_1" data-name="Layer 1" xmlns="http://www.w3.org/2000/svg" viewBox="0 0 332.98 87.16"><defs><style>.cls-1{fill:#2e3192;}</style></defs><title>swirl</title><path class="cls-1" d="M29.7,65.51a7.87,7.87,0,0,0,4.77-1.29,7.53,7.53,0,0,0,3-3.78A7.75,7.75,0,0,0,34.76,52a8.53,8.53,0,0,0-4.19-1.8,8,8,0,0,0-2.27,0,8.21,8.21,0,0,0-1.15.19,8.51,8.51,0,0,0-1.11.3,9.19,9.19,0,0,0-3.74,2.37,10.4,10.4,0,0,0-2.23,3.85c-1.86,5.77.15,13,4.93,16.26a13.84,13.84,0,0,0,8.29,2.48,17.33,17.33,0,0,0,2.21-.17l1.09-.23.54-.11.53-.17a16.33,16.33,0,0,0,4-1.82A15.65,15.65,0,0,0,45,70.33a7.15,7.15,0,0,0,.66-.84,7.64,7.64,0,0,0,.61-.88,15.57,15.57,0,0,0,1-1.93,16.37,16.37,0,0,0,1.4-8.5,19.66,19.66,0,0,0-.89-4.31,20.76,20.76,0,0,0-1.87-4,20.44,20.44,0,0,0-2.66-3.49,18.69,18.69,0,0,0-3.39-2.74,23.27,23.27,0,0,0-17.05-3.26,31.09,31.09,0,0,0-8.62,2.92c-.67.38-1.36.71-2,1.11s-1.31.81-1.94,1.24-1.25.9-1.85,1.37L6.75,48.37.53,53.6.46,45.87A38,38,0,0,1,1.59,35.64a36.68,36.68,0,0,1,3.93-9.45,41.41,41.41,0,0,1,6.15-8.05l.87-.92.93-.85c.63-.56,1.24-1.14,1.89-1.67a51.83,51.83,0,0,1,8.38-5.54c.74-.39,1.51-.72,2.27-1.08l1.14-.53,1.18-.45c.79-.29,1.57-.61,2.37-.87l2.43-.71C34.76,5,36.38,4.78,38,4.41a62.43,62.43,0,0,1,19.64-.13,85.59,85.59,0,0,1,18.65,5,132.92,132.92,0,0,1,17.18,8.16c5.5,3.1,10.73,6.37,16,9.71L125,37.26c5.16,3.35,10.32,6.63,15.55,9.79,2.6,1.6,5.23,3.14,7.87,4.66s5.34,3,8,4.5c5.37,3,10.78,5.84,16.25,8.58s11,5.44,16.55,7.94,11.27,4.86,16.94,6.93a80.39,80.39,0,0,0,17.59,4.15,49.32,49.32,0,0,0,17.95-1.16,35.08,35.08,0,0,0,15.53-9.25,35,35,0,0,1-15.08,10.68,49.9,49.9,0,0,1-18.62,2.47A83.64,83.64,0,0,1,205,83.29c-3-.9-6-1.9-8.87-3s-5.82-2.15-8.72-3.28q-8.66-3.43-17.12-7.3c-5.63-2.6-11.2-5.33-16.72-8.14q-4.14-2.1-8.25-4.27c-2.75-1.47-5.49-3-8.19-4.5-5.39-3.09-10.69-6.33-15.94-9.58l-15.69-9.74c-2.62-1.6-5.23-3.19-7.86-4.73s-5.26-3.11-7.88-4.56A125.19,125.19,0,0,0,73.5,16.64a77.75,77.75,0,0,0-17-4.48,58.06,58.06,0,0,0-17.17.07,43.06,43.06,0,0,0-8.15,2.2l-1,.36-1,.44c-.63.3-1.28.57-1.91.89a44.11,44.11,0,0,0-7,4.59c-.54.44-1,.93-1.58,1.38l-.78.7-.72.76a33.71,33.71,0,0,0-5.08,6.55l-1,1.79-.85,1.87a13.93,13.93,0,0,0-.75,1.9,19.19,19.19,0,0,0-.64,1.94,30.58,30.58,0,0,0-1.06,8.06l-6.3-2.5A3.55,3.55,0,0,1,2,42.78l.27-.22.54-.44,1.09-.87c.74-.56,1.52-1.07,2.27-1.61s1.58-1,2.37-1.46,1.65-.86,2.47-1.3A38.15,38.15,0,0,1,21.64,33.5,31.63,31.63,0,0,1,33,33.73,28.27,28.27,0,0,1,43.46,38.3a25.11,25.11,0,0,1,4.37,3.8,26.9,26.9,0,0,1,5.61,10,25.53,25.53,0,0,1,1,5.68,22,22,0,0,1-2.26,11.29,20.73,20.73,0,0,1-1.48,2.51,12.09,12.09,0,0,1-.89,1.17,11.4,11.4,0,0,1-1,1.12,20.77,20.77,0,0,1-4.58,3.6,21.23,21.23,0,0,1-5.33,2.13l-.69.18-.71.12c-.47.08-.94.16-1.42.22a21.88,21.88,0,0,1-2.87.1,18.7,18.7,0,0,1-5.65-1,18.11,18.11,0,0,1-5.07-2.76c-.38-.3-.72-.64-1.08-1a9.9,9.9,0,0,1-1-1,15.72,15.72,0,0,1-1.71-2.34A19.09,19.09,0,0,1,17.3,55.89a13.2,13.2,0,0,1,3.13-4.71,11.32,11.32,0,0,1,5-2.72,10.73,10.73,0,0,1,1.37-.27,10.23,10.23,0,0,1,1.37-.13,10,10,0,0,1,2.79.21,10.33,10.33,0,0,1,4.9,2.52,9.19,9.19,0,0,1,1.75,2.13,8.64,8.64,0,0,1,1.06,2.52,8.06,8.06,0,0,1-3.94,9.16A8.09,8.09,0,0,1,29.7,65.51Z"/><path class="cls-1" d="M302.93,21.62a7.87,7.87,0,0,0-4.77,1.29,7.53,7.53,0,0,0-3,3.78,7.75,7.75,0,0,0,2.66,8.43,8.53,8.53,0,0,0,4.19,1.8,8,8,0,0,0,2.27,0,8.21,8.21,0,0,0,1.15-.19,8.51,8.51,0,0,0,1.11-.3,9.19,9.19,0,0,0,3.74-2.37,10.4,10.4,0,0,0,2.23-3.85c1.86-5.77-.15-13-4.94-16.26a13.84,13.84,0,0,0-8.29-2.48,17.32,17.32,0,0,0-2.21.17l-1.09.23-.54.11-.53.17a16.33,16.33,0,0,0-4,1.82,15.64,15.64,0,0,0-3.27,2.83,7.14,7.14,0,0,0-.66.84,7.64,7.64,0,0,0-.61.88,15.57,15.57,0,0,0-1,1.93,16.37,16.37,0,0,0-1.4,8.5,19.66,19.66,0,0,0,.89,4.31,20.77,20.77,0,0,0,1.87,4,20.44,20.44,0,0,0,2.66,3.49,18.69,18.69,0,0,0,3.39,2.74,23.27,23.27,0,0,0,17.05,3.26,31.09,31.09,0,0,0,8.62-2.92c.67-.38,1.36-.71,2-1.11s1.31-.81,1.94-1.24,1.25-.9,1.85-1.37l1.59-1.34,6.22-5.23.08,7.73A38,38,0,0,1,331,51.49a36.69,36.69,0,0,1-3.93,9.45A41.41,41.41,0,0,1,320.95,69l-.87.92-.93.85c-.63.56-1.24,1.14-1.89,1.67A51.83,51.83,0,0,1,308.87,78c-.74.39-1.51.72-2.27,1.08l-1.14.53-1.18.45c-.79.29-1.57.61-2.37.87l-2.43.71c-1.62.46-3.24.72-4.86,1.09a62.42,62.42,0,0,1-19.64.13,85.59,85.59,0,0,1-18.65-5,132.93,132.93,0,0,1-17.18-8.16c-5.5-3.1-10.73-6.37-16-9.71L207.68,49.87c-5.16-3.35-10.32-6.63-15.55-9.79-2.6-1.6-5.23-3.14-7.87-4.66s-5.34-3-8-4.5c-5.37-3-10.78-5.84-16.25-8.58s-11-5.44-16.55-7.94S132.17,9.55,126.5,7.48a80.39,80.39,0,0,0-17.59-4.15A49.32,49.32,0,0,0,91,4.49a35.08,35.08,0,0,0-15.53,9.25A35,35,0,0,1,90.51,3.05,49.9,49.9,0,0,1,109.13.59a83.65,83.65,0,0,1,18.55,3.25c3,.9,6,1.9,8.87,3s5.82,2.15,8.72,3.28q8.66,3.43,17.12,7.3c5.63,2.6,11.2,5.33,16.72,8.14q4.14,2.1,8.25,4.27c2.75,1.47,5.49,3,8.19,4.5,5.39,3.09,10.69,6.33,15.94,9.58l15.69,9.74c2.62,1.6,5.23,3.19,7.86,4.73s5.26,3.11,7.88,4.56a125.18,125.18,0,0,0,16.22,7.58,77.75,77.75,0,0,0,17,4.48,58.06,58.06,0,0,0,17.17-.07,43.06,43.06,0,0,0,8.15-2.2l1-.36,1-.44c.63-.3,1.28-.57,1.91-.89a44.1,44.1,0,0,0,7-4.59c.54-.44,1-.93,1.58-1.38l.78-.7.72-.76A33.7,33.7,0,0,0,320.48,57l1-1.79.85-1.87a13.93,13.93,0,0,0,.75-1.9,19.21,19.21,0,0,0,.64-1.94,30.58,30.58,0,0,0,1.06-8.06l6.3,2.5a3.54,3.54,0,0,1-.42.38l-.27.22-.54.44-1.09.87c-.74.56-1.52,1.07-2.27,1.61s-1.58,1-2.37,1.46-1.65.86-2.47,1.3A38.15,38.15,0,0,1,311,53.63a31.63,31.63,0,0,1-11.36-.23,28.27,28.27,0,0,1-10.47-4.57A25.12,25.12,0,0,1,284.8,45a26.9,26.9,0,0,1-5.61-10,25.52,25.52,0,0,1-1-5.68,22,22,0,0,1,2.26-11.29,20.74,20.74,0,0,1,1.48-2.51,12.08,12.08,0,0,1,.89-1.17,11.39,11.39,0,0,1,1-1.12,20.77,20.77,0,0,1,4.58-3.6,21.23,21.23,0,0,1,5.33-2.13l.69-.18.71-.12c.47-.08.94-.16,1.42-.22a21.89,21.89,0,0,1,2.87-.1,18.7,18.7,0,0,1,5.65,1,18.11,18.11,0,0,1,5.07,2.76c.38.3.72.64,1.08,1a9.89,9.89,0,0,1,1,1A15.71,15.71,0,0,1,313.91,15,18.46,18.46,0,0,1,316,20.26a18.62,18.62,0,0,1-.67,11A13.2,13.2,0,0,1,312.2,36a11.32,11.32,0,0,1-5,2.72,10.73,10.73,0,0,1-1.37.27,10.23,10.23,0,0,1-1.37.13,10,10,0,0,1-2.79-.21,10.33,10.33,0,0,1-4.9-2.52,9.19,9.19,0,0,1-1.75-2.13A8.64,8.64,0,0,1,294,31.7a8.06,8.06,0,0,1,3.94-9.16A8.09,8.09,0,0,1,302.93,21.62Z"/></svg>