<svg id="Layer_1" data-name="Layer 1" xmlns="http://www.w3.org/2000/svg" viewBox="0 0 500 275.47" style=""><defs><style>.cls-1,.cls-2{fill:none;stroke:#2e3192;stroke-miterlimit:10;}.cls-1{stroke-width:13px;}.cls-2{stroke-width:7px;}</style></defs><title>violin</title><path class="cls-1 ouabXyok_0" d="M187.95,125.89s6-52.57,53.37-54.09c0,0,12.22-2,23.93,3.06,7.51,3.27,15.23.92,19.8-1.18A2.1,2.1,0,0,1,288,75.9c-1.2,7.69.6,22.22,32.76,18.81C352.3,91.37,359,75,360.24,66.43a3.75,3.75,0,0,1,4.72-3.1c5.66,1.61,17.22,1.92,37.76-8.84,0,0,39.21-10.69,60.59,17.82s24.44,54,25.46,86c0,0-1,43.28-43.79,60.08,0,0-34.11,12.22-56.52-3.56,0,0-11.76-7.35-20.6-3.94a3.07,3.07,0,0,1-4.12-2.65c-.53-6.88-4.25-18.3-22.12-23.45-26.48-7.64-47.86,1.53-47.86,1.53s-6.89,3.83-5.4,13.48a1.4,1.4,0,0,1-2.09,1.44c-3.29-2-9.38-3.6-20-.15-18.84,6.11-40.73,13.75-62.63-12.73s-18.84-36.66-18.84-36.66L28,146.64s-2,15.78-12.22,3.06,0-26.48,0-26.48S28,114.06,28,130.35l277.5-7.13-1.53,33.61-118.77-5.06"></path><path class="cls-2 ouabXyok_1" d="M326.77,118.77s-12.69-2.93-2.6-9.76c0,0,4.55-4.94,41-4.56,30.59.33,14.64-23.75,5.86-17.25"></path><path class="cls-2 ouabXyok_2" d="M326.77,157.82s-13.34,3.25-2.93,9.44,25.06,3.58,36.12,4.23,22.13,8.14,18.22,15-7.81,1.63-7.81,1.63"></path><path class="cls-2 ouabXyok_3" d="M452.76,214.86s-23.35-21.79-18-46.33,34.89-23.77,34.89-23.77c-30.29-6.9-77.45,15.34-77.45,15.34,6.9-11.5,0-41.33,0-41.33s52.61,24.83,94,7.58"></path><path class="cls-2 ouabXyok_4" d="M305.24,128.29L393.96,128.29"></path><path class="cls-2 ouabXyok_5" d="M304.91,135.58L395.03,137.74"></path><path class="cls-2 ouabXyok_6" d="M304.91,142.46L395.16,148.21"></path><path class="cls-2 ouabXyok_7" d="M304.34,148.21L392.22,160.1"></path><path class="cls-2 ouabXyok_8" d="M63.16,129.45V116.53s13.1-13.17-1.9-12.55c-11.31.47-1.09,12.73-1.09,12.73l0,12.81"></path><path class="cls-2 ouabXyok_9" d="M42.7,129.45V116.53S55.8,103.36,40.8,104c-11.31.47-1.09,12.73-1.09,12.73l0,12.81"></path><path class="cls-2 ouabXyok_10" d="M39.77,147.59v12.91s-13.1,13.17,1.9,12.55c11.31-.47,1.09-12.73,1.09-12.73l0-12.81"></path><path class="cls-2 ouabXyok_11" d="M61.22,147.59v12.91s-13.1,13.17,1.9,12.55c11.31-.47,1.09-12.73,1.09-12.73l0-12.81"></path><style data-made-with="vivus-instant">.ouabXyok_0{stroke-dasharray:1487 1489;stroke-dashoffset:1488;animation:ouabXyok_draw_0 5800ms ease-in-out 0ms infinite,ouabXyok_fade 5800ms linear 0ms infinite;}.ouabXyok_1{stroke-dasharray:97 99;stroke-dashoffset:98;animation:ouabXyok_draw_1 5800ms ease-in-out 0ms infinite,ouabXyok_fade 5800ms linear 0ms infinite;}.ouabXyok_2{stroke-dasharray:90 92;stroke-dashoffset:91;animation:ouabXyok_draw_2 5800ms ease-in-out 0ms infinite,ouabXyok_fade 5800ms linear 0ms infinite;}.ouabXyok_3{stroke-dasharray:317 319;stroke-dashoffset:318;animation:ouabXyok_draw_3 5800ms ease-in-out 0ms infinite,ouabXyok_fade 5800ms linear 0ms infinite;}.ouabXyok_4{stroke-dasharray:89 91;stroke-dashoffset:90;animation:ouabXyok_draw_4 5800ms ease-in-out 0ms infinite,ouabXyok_fade 5800ms linear 0ms infinite;}.ouabXyok_5{stroke-dasharray:91 93;stroke-dashoffset:92;animation:ouabXyok_draw_5 5800ms ease-in-out 0ms infinite,ouabXyok_fade 5800ms linear 0ms infinite;}.ouabXyok_6{stroke-dasharray:91 93;stroke-dashoffset:92;animation:ouabXyok_draw_6 5800ms ease-in-out 0ms infinite,ouabXyok_fade 5800ms linear 0ms infinite;}.ouabXyok_7{stroke-dasharray:89 91;stroke-dashoffset:90;animation:ouabXyok_draw_7 5800ms ease-in-out 0ms infinite,ouabXyok_fade 5800ms linear 0ms infinite;}.ouabXyok_8{stroke-dasharray:63 65;stroke-dashoffset:64;animation:ouabXyok_draw_8 5800ms ease-in-out 0ms infinite,ouabXyok_fade 5800ms linear 0ms infinite;}.ouabXyok_9{stroke-dasharray:63 65;stroke-dashoffset:64;animation:ouabXyok_draw_9 5800ms ease-in-out 0ms infinite,ouabXyok_fade 5800ms linear 0ms infinite;}.ouabXyok_10{stroke-dasharray:63 65;stroke-dashoffset:64;animation:ouabXyok_draw_10 5800ms ease-in-out 0ms infinite,ouabXyok_fade 5800ms linear 0ms infinite;}.ouabXyok_11{stroke-dasharray:63 65;stroke-dashoffset:64;animation:ouabXyok_draw_11 5800ms ease-in-out 0ms infinite,ouabXyok_fade 5800ms linear 0ms infinite;}@keyframes ouabXyok_draw{100%{stroke-dashoffset:0;}}@keyframes ouabXyok_fade{0%{stroke-opacity:1;}93.10344827586206%{stroke-opacity:1;}100%{stroke-opacity:0;}}@keyframes ouabXyok_draw_0{6.896551724137931%{stroke-dashoffset: 1488}41.37931034482759%{ stroke-dashoffset: 0;}100%{ stroke-dashoffset: 0;}}@keyframes ouabXyok_draw_1{8.463949843260188%{stroke-dashoffset: 98}42.94670846394985%{ stroke-dashoffset: 0;}100%{ stroke-dashoffset: 0;}}@keyframes ouabXyok_draw_2{10.031347962382444%{stroke-dashoffset: 91}44.514106583072106%{ stroke-dashoffset: 0;}100%{ stroke-dashoffset: 0;}}@keyframes ouabXyok_draw_3{11.598746081504704%{stroke-dashoffset: 318}46.08150470219436%{ stroke-dashoffset: 0;}100%{ stroke-dashoffset: 0;}}@keyframes ouabXyok_draw_4{13.166144200626958%{stroke-dashoffset: 90}47.64890282131661%{ stroke-dashoffset: 0;}100%{ stroke-dashoffset: 0;}}@keyframes ouabXyok_draw_5{14.733542319749215%{stroke-dashoffset: 92}49.21630094043887%{ stroke-dashoffset: 0;}100%{ stroke-dashoffset: 0;}}@keyframes ouabXyok_draw_6{16.300940438871475%{stroke-dashoffset: 92}50.78369905956113%{ stroke-dashoffset: 0;}100%{ stroke-dashoffset: 0;}}@keyframes ouabXyok_draw_7{17.86833855799373%{stroke-dashoffset: 90}52.35109717868339%{ stroke-dashoffset: 0;}100%{ stroke-dashoffset: 0;}}@keyframes ouabXyok_draw_8{19.435736677115987%{stroke-dashoffset: 64}53.918495297805634%{ stroke-dashoffset: 0;}100%{ stroke-dashoffset: 0;}}@keyframes ouabXyok_draw_9{21.00313479623824%{stroke-dashoffset: 64}55.4858934169279%{ stroke-dashoffset: 0;}100%{ stroke-dashoffset: 0;}}@keyframes ouabXyok_draw_10{22.5705329153605%{stroke-dashoffset: 64}57.05329153605015%{ stroke-dashoffset: 0;}100%{ stroke-dashoffset: 0;}}@keyframes ouabXyok_draw_11{24.137931034482758%{stroke-dashoffset: 64}58.620689655172406%{ stroke-dashoffset: 0;}100%{ stroke-dashoffset: 0;}}</style></svg>