<svg id="Layer_1" data-name="Layer 1" xmlns="http://www.w3.org/2000/svg" viewBox="0 0 500 275.47"><defs><style>.cls-1,.cls-2{fill:none;stroke:#2e3192;stroke-miterlimit:10;}.cls-1{stroke-width:13px;}.cls-2{stroke-width:7px;}</style></defs><title>violin</title><path class="cls-1" d="M187.95,125.89s6-52.57,53.37-54.09c0,0,12.22-2,23.93,3.06,7.51,3.27,15.23.92,19.8-1.18A2.1,2.1,0,0,1,288,75.9c-1.2,7.69.6,22.22,32.76,18.81C352.3,91.37,359,75,360.24,66.43a3.75,3.75,0,0,1,4.72-3.1c5.66,1.61,17.22,1.92,37.76-8.84,0,0,39.21-10.69,60.59,17.82s24.44,54,25.46,86c0,0-1,43.28-43.79,60.08,0,0-34.11,12.22-56.52-3.56,0,0-11.76-7.35-20.6-3.94a3.07,3.07,0,0,1-4.12-2.65c-.53-6.88-4.25-18.3-22.12-23.45-26.48-7.64-47.86,1.53-47.86,1.53s-6.89,3.83-5.4,13.48a1.4,1.4,0,0,1-2.09,1.44c-3.29-2-9.38-3.6-20-.15-18.84,6.11-40.73,13.75-62.63-12.73s-18.84-36.66-18.84-36.66L28,146.64s-2,15.78-12.22,3.06,0-26.48,0-26.48S28,114.06,28,130.35l277.5-7.13-1.53,33.61-118.77-5.06"/><path class="cls-2" d="M326.77,118.77s-12.69-2.93-2.6-9.76c0,0,4.55-4.94,41-4.56,30.59.33,14.64-23.75,5.86-17.25"/><path class="cls-2" d="M326.77,157.82s-13.34,3.25-2.93,9.44,25.06,3.58,36.12,4.23,22.13,8.14,18.22,15-7.81,1.63-7.81,1.63"/><path class="cls-2" d="M452.76,214.86s-23.35-21.79-18-46.33,34.89-23.77,34.89-23.77c-30.29-6.9-77.45,15.34-77.45,15.34,6.9-11.5,0-41.33,0-41.33s52.61,24.83,94,7.58"/><line class="cls-2" x1="305.24" y1="128.29" x2="393.96" y2="128.29"/><line class="cls-2" x1="304.91" y1="135.58" x2="395.03" y2="137.74"/><line class="cls-2" x1="304.91" y1="142.46" x2="395.16" y2="148.21"/><line class="cls-2" x1="304.34" y1="148.21" x2="392.22" y2="160.1"/><path class="cls-2" d="M63.16,129.45V116.53s13.1-13.17-1.9-12.55c-11.31.47-1.09,12.73-1.09,12.73l0,12.81"/><path class="cls-2" d="M42.7,129.45V116.53S55.8,103.36,40.8,104c-11.31.47-1.09,12.73-1.09,12.73l0,12.81"/><path class="cls-2" d="M39.77,147.59v12.91s-13.1,13.17,1.9,12.55c11.31-.47,1.09-12.73,1.09-12.73l0-12.81"/><path class="cls-2" d="M61.22,147.59v12.91s-13.1,13.17,1.9,12.55c11.31-.47,1.09-12.73,1.09-12.73l0-12.81"/></svg>