<svg id="Layer_1" data-name="Layer 1" xmlns="http://www.w3.org/2000/svg" viewBox="0 0 500 400" style=""><defs><style>.cls-1,.cls-2{fill:none;stroke:#2e3190;stroke-miterlimit:10;}.cls-1{stroke-width:11.09px;}.cls-2{stroke-width:5.97px;}</style></defs><title>wine</title><path class="cls-1 lmYqXOEf_0" d="M196.23,40.48l105.18-1.54s43.76,97.5,5,140.88-69.1,31.48-69.1,31.48-56.81-22.65-59.5-69.48S196.23,40.48,196.23,40.48Z"></path><path class="cls-1 lmYqXOEf_1" d="M237.31,211.3s13.05,89.83,0,118.23c0,0-37.24-3.84-46.06,13.82S250,361,250,361s61.78,1.92,61.78-17.27S264.56,328,264.56,328s-13.82-74.47-2.69-116.7"></path><path class="cls-2 lmYqXOEf_2" d="M177.59,135.66s88.53-15.68,144.75-2"></path><path class="cls-2 lmYqXOEf_3" d="M177.68,139s77.39,15.82,144.49-2"></path><path class="cls-2 lmYqXOEf_4" d="M277.38,156.63s12.51,2,22-2S285.83,186,273.66,187.73,277.38,156.63,277.38,156.63Z"></path><style data-made-with="vivus-instant">.lmYqXOEf_0{stroke-dasharray:533 535;stroke-dashoffset:534;animation:lmYqXOEf_draw_0 5800ms ease-in-out 0ms infinite,lmYqXOEf_fade 5800ms linear 0ms infinite;}.lmYqXOEf_1{stroke-dasharray:477 479;stroke-dashoffset:478;animation:lmYqXOEf_draw_1 5800ms ease-in-out 0ms infinite,lmYqXOEf_fade 5800ms linear 0ms infinite;}.lmYqXOEf_2{stroke-dasharray:146 148;stroke-dashoffset:147;animation:lmYqXOEf_draw_2 5800ms ease-in-out 0ms infinite,lmYqXOEf_fade 5800ms linear 0ms infinite;}.lmYqXOEf_3{stroke-dasharray:146 148;stroke-dashoffset:147;animation:lmYqXOEf_draw_3 5800ms ease-in-out 0ms infinite,lmYqXOEf_fade 5800ms linear 0ms infinite;}.lmYqXOEf_4{stroke-dasharray:105 107;stroke-dashoffset:106;animation:lmYqXOEf_draw_4 5800ms ease-in-out 0ms infinite,lmYqXOEf_fade 5800ms linear 0ms infinite;}@keyframes lmYqXOEf_draw{100%{stroke-dashoffset:0;}}@keyframes lmYqXOEf_fade{0%{stroke-opacity:1;}93.10344827586206%{stroke-opacity:1;}100%{stroke-opacity:0;}}@keyframes lmYqXOEf_draw_0{6.896551724137931%{stroke-dashoffset: 534}41.37931034482759%{ stroke-dashoffset: 0;}100%{ stroke-dashoffset: 0;}}@keyframes lmYqXOEf_draw_1{11.206896551724139%{stroke-dashoffset: 478}45.689655172413794%{ stroke-dashoffset: 0;}100%{ stroke-dashoffset: 0;}}@keyframes lmYqXOEf_draw_2{15.517241379310345%{stroke-dashoffset: 147}50%{ stroke-dashoffset: 0;}100%{ stroke-dashoffset: 0;}}@keyframes lmYqXOEf_draw_3{19.82758620689655%{stroke-dashoffset: 147}54.310344827586206%{ stroke-dashoffset: 0;}100%{ stroke-dashoffset: 0;}}@keyframes lmYqXOEf_draw_4{24.137931034482758%{stroke-dashoffset: 106}58.620689655172406%{ stroke-dashoffset: 0;}100%{ stroke-dashoffset: 0;}}</style></svg>